<?xml version="1.0" standalone="no"?>
<!DOCTYPE svg PUBLIC "-//W3C//DTD SVG 20010904//EN"
 "http://www.w3.org/TR/2001/REC-SVG-20010904/DTD/svg10.dtd">
<svg version="1.0" xmlns="http://www.w3.org/2000/svg"
 width="512.000000pt" height="512.000000pt" viewBox="0 0 512.000000 512.000000"
 preserveAspectRatio="xMidYMid meet">
<metadata>
Created by potrace 1.11, written by Peter Selinger 2001-2013
</metadata>
<g transform="translate(0.000000,512.000000) scale(0.100000,-0.100000)"
fill="#000000" stroke="none">
<path d="M2 3898 c3 -842 3 -851 23 -854 22 -3 50 -7 215 -28 63 -9 147 -20
185 -25 39 -6 93 -13 120 -16 28 -4 61 -8 75 -10 14 -2 48 -7 75 -10 28 -3 61
-8 75 -10 14 -3 48 -7 75 -11 28 -3 61 -7 75 -9 14 -2 48 -7 75 -10 28 -3 61
-8 75 -10 14 -3 48 -7 75 -10 28 -3 61 -8 75 -10 14 -2 81 -11 150 -20 69 -9
136 -18 150 -20 14 -2 45 -6 70 -10 25 -3 63 -8 85 -12 22 -3 51 -7 65 -8 29
-3 127 -16 152 -20 9 -2 41 -6 70 -9 29 -4 62 -8 74 -10 11 -2 45 -7 75 -10
30 -3 65 -8 79 -10 30 -5 100 -15 155 -21 22 -3 54 -7 70 -10 17 -2 100 -13
185 -24 85 -11 187 -25 225 -30 39 -6 93 -13 120 -16 28 -3 59 -8 70 -10 11
-2 47 -7 80 -10 33 -4 67 -8 75 -10 8 -2 38 -7 65 -10 57 -7 63 -8 235 -31 69
-9 133 -16 142 -16 10 0 21 -4 24 -10 4 -6 3 -9 -2 -6 -5 3 -47 0 -94 -7 -47
-7 -110 -16 -141 -19 -31 -4 -65 -8 -75 -10 -11 -2 -44 -7 -74 -10 -30 -4 -66
-8 -80 -10 -14 -3 -47 -7 -75 -11 -51 -6 -58 -7 -185 -24 -41 -6 -95 -13 -120
-16 -25 -4 -56 -8 -70 -10 -14 -2 -47 -6 -75 -10 -27 -3 -61 -8 -75 -10 -47
-7 -105 -15 -150 -20 -25 -3 -56 -8 -70 -10 -14 -2 -50 -7 -80 -10 -30 -3 -66
-8 -80 -10 -14 -2 -45 -7 -70 -10 -25 -4 -56 -8 -70 -10 -14 -2 -50 -7 -80
-10 -30 -3 -67 -8 -81 -11 -15 -2 -47 -6 -70 -9 -42 -5 -532 -71 -594 -80 -71
-10 -283 -37 -314 -41 -19 -2 -84 -10 -145 -19 -61 -9 -129 -18 -151 -21 -22
-2 -71 -9 -110 -14 -38 -5 -90 -12 -115 -15 -25 -4 -56 -8 -70 -10 -14 -2 -49
-7 -79 -10 -30 -4 -61 -8 -70 -10 -25 -4 -134 -18 -153 -19 -17 0 -18 -48 -18
-853 0 -469 2 -853 5 -853 6 0 100 39 175 72 91 41 108 48 113 48 3 0 34 13
69 29 35 16 108 48 163 71 55 23 124 53 153 66 29 13 80 35 115 50 34 14 76
31 92 39 17 7 111 48 210 90 194 83 215 92 287 124 26 11 50 21 53 21 2 0 30
12 62 26 52 24 90 40 148 64 11 5 40 18 65 28 25 11 110 48 190 82 80 34 159
68 175 75 17 8 91 39 165 71 74 31 155 65 180 76 25 11 54 24 65 28 33 15 118
51 150 65 17 8 59 26 95 41 36 14 83 35 105 45 22 10 184 79 360 154 176 75
335 143 353 151 17 8 48 21 67 29 19 8 50 21 68 29 85 37 184 79 202 87 11 4
42 18 70 30 27 12 108 46 180 76 71 30 153 65 180 77 28 13 218 94 422 182
205 87 373 161 373 164 0 7 -102 50 -117 50 -7 0 -13 5 -13 10 0 6 -7 10 -15
10 -8 0 -23 4 -33 10 -9 5 -127 57 -262 114 -135 57 -265 112 -290 124 -25 11
-85 37 -134 57 -49 20 -96 41 -105 45 -40 22 -818 350 -829 350 -7 0 -12 5
-12 10 0 6 -6 10 -14 10 -12 0 -134 51 -241 100 -75 34 -3033 1300 -3039 1300
-3 0 -5 -383 -4 -852z"/>
</g>
</svg>
